<?xml version="1.0" encoding="utf-8"?>
<!-- Generator: Adobe Illustrator 15.0.2, SVG Export Plug-In . SVG Version: 6.00 Build 0)  -->
<!DOCTYPE svg PUBLIC "-//W3C//DTD SVG 1.1//EN" "http://www.w3.org/Graphics/SVG/1.1/DTD/svg11.dtd">
<svg version="1.1" id="Layer_1" xmlns="http://www.w3.org/2000/svg" xmlns:xlink="http://www.w3.org/1999/xlink" x="0px" y="0px"
	 width="100px" height="21.5px" viewBox="0 0 100 21.5" enable-background="new 0 0 100 21.5" xml:space="preserve">
<path fill="#FFFFFF" d="M50.36,7.51c-1.98,0-3.38,1.25-3.57,3.22c-0.03,0.47-0.05,1.3,0,1.89c0.15,1.89,1.56,3.2,3.64,3.2
	c0.97,0,1.93-0.2,2.49-0.53c0.41-0.24,0.51-0.56,0.51-0.85c0-0.56-0.53-1.1-1.33-0.8c-0.51,0.2-1.07,0.33-1.62,0.33
	c-1.01,0-1.74-0.51-1.74-1.47v-0.15h4.02c0.74,0,1.04-0.42,1.04-1.01v-0.33C53.82,8.88,52.42,7.51,50.36,7.51z M51.71,10.98h-2.95
	c0-1.04,0.53-1.72,1.6-1.72c0.98,0,1.56,0.62,1.51,1.54C51.87,10.92,51.81,10.98,51.71,10.98z M41.83,7.51
	c-1.98,0-3.38,1.25-3.57,3.22c-0.03,0.47-0.05,1.3,0,1.89c0.15,1.89,1.56,3.2,3.64,3.2c0.97,0,1.93-0.2,2.49-0.53
	c0.41-0.24,0.51-0.56,0.51-0.85c0-0.56-0.53-1.1-1.33-0.8c-0.51,0.2-1.07,0.33-1.62,0.33c-1.01,0-1.74-0.51-1.74-1.47v-0.15h4.02
	c0.74,0,1.04-0.42,1.04-1.01v-0.33C45.29,8.88,43.88,7.51,41.83,7.51z M43.17,10.98h-2.95c0-1.04,0.53-1.72,1.6-1.72
	c0.98,0,1.56,0.62,1.51,1.54C43.34,10.92,43.28,10.98,43.17,10.98z M36.49,7.63c-0.3-0.08-0.8-0.12-1.3-0.12
	c-1.74,0-2.66,1.01-2.66,2.58v4.65c0,0.57,0.45,1.03,1.01,1.03c0.57,0,1.01-0.45,1.01-1.03v-4.28c0-0.7,0.29-0.97,0.79-0.98
	c0.45-0.02,0.79,0.14,1.13,0.14c0.63,0,0.95-0.54,0.95-0.95C37.43,8.17,37.11,7.79,36.49,7.63z M29.86,13.75
	c-0.27,0.08-0.6,0.17-0.94,0.17c-0.67,0-0.98-0.39-0.98-1.12V9.68h1.89c0.5,0,0.94-0.38,0.94-0.88c0-0.53-0.44-0.91-0.94-0.91h-1.89
	V6.87c0-0.59-0.45-1.06-1.01-1.06c-0.57,0-1.01,0.47-1.01,1.06v5.97c0,1.69,0.85,2.98,2.72,2.98c0.57,0,1.31-0.08,1.84-0.32
	c0.47-0.21,0.63-0.56,0.63-0.89C31.11,14.05,30.63,13.57,29.86,13.75z M59.49,7.51c-0.8,0-1.57,0.29-1.9,0.59V5.89
	c0-0.59-0.45-1.04-1.01-1.04c-0.57,0-1.01,0.45-1.01,1.04v8.84c0,0.57,0.47,1.04,1.03,1.04c0.57,0,1-0.47,1-1.04v-4.61
	c0.32-0.35,0.94-0.63,1.57-0.63c0.83,0,1.36,0.51,1.36,1.44v3.78c0,0.6,0.44,1.07,1,1.07c0.6,0,1.03-0.47,1.03-1.07v-3.88
	C62.54,8.66,61.41,7.51,59.49,7.51z M93.2,7.51c-1.98,0-3.38,1.25-3.57,3.22c-0.03,0.47-0.04,1.3,0,1.89
	c0.15,1.89,1.56,3.2,3.64,3.2c0.97,0,1.93-0.2,2.49-0.53c0.41-0.24,0.51-0.56,0.51-0.85c0-0.56-0.53-1.1-1.33-0.8
	c-0.51,0.2-1.07,0.33-1.62,0.33c-1.01,0-1.74-0.51-1.74-1.47v-0.15h4.02c0.74,0,1.04-0.42,1.04-1.01v-0.33
	C96.66,8.88,95.25,7.51,93.2,7.51z M94.54,10.98H91.6c0-1.04,0.53-1.72,1.6-1.72c0.98,0,1.56,0.62,1.51,1.54
	C94.71,10.92,94.65,10.98,94.54,10.98z M98.21,7.61h-0.87c-0.09,0-0.16,0.07-0.16,0.17c0,0.09,0.08,0.16,0.16,0.16h0.26v0.8
	c0,0.09,0.08,0.17,0.18,0.17c0.1,0,0.17-0.07,0.17-0.17v-0.8h0.25c0.09,0,0.16-0.07,0.16-0.16C98.38,7.68,98.3,7.61,98.21,7.61z
	 M99.85,7.83c-0.03-0.16-0.13-0.24-0.27-0.24c-0.12,0-0.23,0.08-0.26,0.21l-0.15,0.65L99.02,7.8c-0.03-0.13-0.14-0.21-0.26-0.21
	c-0.13,0-0.24,0.08-0.27,0.25L98.35,8.7c-0.02,0.1,0.02,0.21,0.12,0.22c0.12,0.02,0.2-0.05,0.21-0.15l0.09-0.73l0.17,0.68
	c0.04,0.13,0.11,0.2,0.22,0.2c0.12,0,0.19-0.08,0.22-0.2l0.17-0.68l0.09,0.73c0.01,0.1,0.09,0.17,0.22,0.15
	C99.96,8.9,100,8.8,99.98,8.7L99.85,7.83z M86.02,10.89l-1.07-0.24c-0.68-0.15-0.91-0.36-0.91-0.68c0-0.36,0.32-0.65,1.07-0.65
	c0.39,0,0.92,0.14,1.32,0.33c0.5,0.26,1.01,0.21,1.31-0.12c0.32-0.36,0.35-0.98-0.09-1.34c-0.53-0.44-1.51-0.68-2.46-0.68
	c-1.77,0-3.08,0.89-3.08,2.52c0,1.3,0.97,1.99,2.21,2.31c0.59,0.15,0.57,0.14,1.12,0.26c0.63,0.15,0.88,0.38,0.88,0.71
	c0,0.41-0.36,0.7-1.15,0.7c-0.71,0-1.33-0.2-1.8-0.5c-0.5-0.32-1.01-0.23-1.31,0.18c-0.29,0.38-0.18,0.95,0.18,1.25
	c0.56,0.47,1.47,0.88,2.88,0.88c1.75,0,3.16-0.94,3.16-2.63C88.27,11.99,87.53,11.25,86.02,10.89z M79.28,7.55
	c-0.59,0-1.01,0.47-1.01,1.04v4.9c-0.32,0.2-0.82,0.39-1.48,0.39c-0.86,0-1.45-0.5-1.45-1.41V8.62c0-0.6-0.45-1.07-1.03-1.07
	c-0.63,0-1,0.47-1,1.07v3.88c0,2.13,1.25,3.31,3.43,3.31c1.62,0,2.72-0.53,3.19-0.86c0.27-0.17,0.36-0.36,0.36-0.71V8.59
	C80.29,8.02,79.84,7.55,79.28,7.55z M67.94,7.51c-1.98,0-3.47,1.27-3.63,3.08c-0.04,0.6-0.04,1.56,0,2.16
	c0.15,1.8,1.65,3.07,3.63,3.07c1.99,0,3.46-1.27,3.61-3.08c0.04-0.6,0.04-1.54,0-2.15C71.4,8.78,69.93,7.51,67.94,7.51z
	 M69.54,12.42c-0.06,0.86-0.65,1.47-1.6,1.47c-0.95,0-1.54-0.6-1.62-1.47c-0.03-0.39-0.03-1.1,0-1.51c0.08-0.86,0.67-1.47,1.62-1.47
	c0.95,0,1.56,0.6,1.6,1.47C69.57,11.31,69.57,12.02,69.54,12.42z"/>
<path fill="#FFFFFF" d="M17.46,3.92c-0.71-0.4-1.85,0.25-2.54,1.45l-1.25,2.18c-0.46,0.9-0.39,1.98,0.19,2.81l0.04,0.05
	c0.58,0.83,1.36,1.6,1.61,1.87c0.15,0.16,0.27,0.36,0.33,0.59c0.21,0.75-0.23,1.54-0.99,1.75c-0.76,0.21-1.54-0.23-1.75-0.99
	c-0.05-0.19-0.06-0.38-0.04-0.57c0.04-0.31-0.06-0.82-0.51-1.32c-0.45-0.5-1.36,0.44-1.66,1.41l-0.01,0.04
	c-0.3,0.97-0.48,1.82-0.43,1.9c0.03,0.05,0.06,0.1,0.09,0.15c0.42,0.78,0.12,1.75-0.66,2.16c-0.78,0.42-1.75,0.12-2.17-0.66
	c-0.42-0.78-0.11-1.72,0.67-2.14c0.04-0.02,0.07-0.04,0.11-0.05c0.06-0.03,0.23-0.43,0.38-0.92c0.15-0.49,0.27-0.87,0.27-0.87
	c0.02-0.05,0.03-0.1,0.04-0.15l0.79-2.82l-0.85,1.73c-0.1-0.33-0.27-0.34-0.63-0.08c-0.22,0.16-0.58,0.46-0.76,0.59
	c-0.33,0.24-0.61,0.7-0.76,0.98c-0.09,0.17-0.21,0.32-0.36,0.44c-0.6,0.49-1.49,0.4-1.98-0.21c-0.49-0.61-0.4-1.49,0.21-1.98
	c0.18-0.14,0.38-0.24,0.59-0.28c0.36-0.08,1.56-0.82,2.29-1.34c0.13-0.09,0.24-0.18,0.33-0.26L9.99,7.9l-1.7,0.92
	c0,0-0.17-0.02-0.38,0.01C7.29,8.9,6.65,8.98,6.53,9.14C6.46,9.23,6.38,9.31,6.28,9.38C5.71,9.79,4.92,9.66,4.52,9.09
	C4.12,8.52,4.24,7.74,4.8,7.33c0.23-0.17,0.5-0.25,0.77-0.24C6.02,7.1,7.22,7.34,8.21,7.17l0.26-0.04c1-0.18,2.19-1.05,2.67-1.94
	c0,0,0.47-0.82,1.04-1.83c0.58-1.01,0.53-2.12-0.09-2.47l-1.14-0.64c-0.57-0.32-1.51-0.32-2.09,0l-7.82,4.4C0.47,4.98,0,5.78,0,6.44
	v8.62c0,0.66,0.47,1.46,1.04,1.79l7.83,4.41c0.57,0.32,1.51,0.32,2.09,0l7.8-4.41c0.57-0.32,1.04-1.13,1.04-1.79V6.44
	c0-0.66-0.47-1.46-1.04-1.79C18.75,4.65,18.18,4.33,17.46,3.92"/>
</svg>
