<?xml version="1.0" encoding="utf-8"?>
<!-- Generator: Adobe Illustrator 15.0.2, SVG Export Plug-In . SVG Version: 6.00 Build 0)  -->
<!DOCTYPE svg PUBLIC "-//W3C//DTD SVG 1.1//EN" "http://www.w3.org/Graphics/SVG/1.1/DTD/svg11.dtd">
<svg version="1.1" id="Layer_1" xmlns="http://www.w3.org/2000/svg" xmlns:xlink="http://www.w3.org/1999/xlink" x="0px" y="0px"
	 width="40px" height="40px" viewBox="0 0 40 40" enable-background="new 0 0 40 40" xml:space="preserve">
<path fill="#FFFFFF" d="M39.984,13.682c-0.003-0.025-0.01-0.049-0.014-0.074c-0.009-0.049-0.018-0.097-0.03-0.145
	c-0.008-0.028-0.018-0.056-0.026-0.083c-0.014-0.042-0.028-0.084-0.045-0.125c-0.012-0.029-0.025-0.057-0.038-0.084
	c-0.018-0.039-0.037-0.077-0.059-0.113c-0.016-0.028-0.032-0.054-0.049-0.08c-0.023-0.036-0.047-0.071-0.072-0.104
	c-0.02-0.025-0.039-0.05-0.06-0.075c-0.027-0.031-0.056-0.063-0.085-0.092c-0.022-0.023-0.045-0.046-0.068-0.067
	c-0.032-0.028-0.064-0.056-0.098-0.082c-0.025-0.02-0.051-0.04-0.078-0.059c-0.01-0.006-0.019-0.015-0.028-0.021L20.953,0.289
	c-0.577-0.385-1.329-0.385-1.907,0L0.765,12.476c-0.009,0.006-0.018,0.015-0.028,0.021c-0.027,0.019-0.052,0.039-0.077,0.059
	c-0.034,0.026-0.066,0.054-0.097,0.082c-0.024,0.021-0.046,0.044-0.069,0.067c-0.03,0.029-0.059,0.061-0.085,0.092
	c-0.021,0.024-0.041,0.05-0.06,0.075c-0.025,0.034-0.049,0.068-0.072,0.104c-0.018,0.026-0.034,0.052-0.05,0.08
	c-0.021,0.037-0.04,0.074-0.058,0.113c-0.013,0.027-0.027,0.056-0.039,0.084c-0.017,0.041-0.03,0.083-0.044,0.125
	c-0.009,0.027-0.019,0.055-0.027,0.083c-0.013,0.047-0.021,0.096-0.03,0.145c-0.004,0.025-0.01,0.049-0.014,0.074
	C0.006,13.755,0,13.83,0,13.906v12.188c0,0.076,0.006,0.15,0.016,0.225c0.003,0.023,0.01,0.049,0.014,0.074
	c0.009,0.049,0.018,0.096,0.03,0.145c0.008,0.027,0.018,0.055,0.027,0.082c0.014,0.043,0.027,0.084,0.044,0.127
	c0.012,0.027,0.025,0.055,0.039,0.082c0.019,0.039,0.037,0.078,0.058,0.115c0.016,0.027,0.032,0.053,0.05,0.078
	c0.022,0.037,0.047,0.072,0.072,0.105c0.019,0.025,0.039,0.051,0.06,0.074c0.027,0.031,0.055,0.062,0.085,0.092
	c0.022,0.023,0.044,0.047,0.069,0.068c0.031,0.027,0.063,0.055,0.097,0.082c0.025,0.02,0.05,0.039,0.077,0.059
	c0.01,0.006,0.019,0.016,0.028,0.021l18.281,12.188C19.335,39.902,19.668,40,20,40s0.664-0.098,0.953-0.289l18.281-12.188
	c0.01-0.006,0.019-0.016,0.028-0.021c0.027-0.02,0.053-0.039,0.078-0.059c0.033-0.027,0.065-0.055,0.098-0.082
	c0.023-0.021,0.046-0.045,0.068-0.068c0.029-0.029,0.058-0.061,0.085-0.092c0.021-0.023,0.04-0.049,0.06-0.074
	c0.025-0.033,0.049-0.068,0.072-0.105c0.017-0.025,0.033-0.051,0.049-0.078c0.021-0.037,0.041-0.076,0.059-0.115
	c0.013-0.027,0.026-0.055,0.038-0.082c0.017-0.043,0.031-0.084,0.045-0.127c0.009-0.027,0.019-0.055,0.026-0.082
	c0.013-0.049,0.021-0.096,0.03-0.145c0.004-0.025,0.011-0.051,0.014-0.074C39.994,26.244,40,26.17,40,26.094V13.906
	C40,13.83,39.994,13.755,39.984,13.682 M21.719,4.931l13.467,8.977l-6.015,4.024l-7.452-4.985V4.931z M18.281,4.931v8.017
	l-7.452,4.985l-6.016-4.024L18.281,4.931z M3.438,17.124L7.738,20l-4.3,2.877V17.124z M18.281,35.068L4.814,26.092l6.016-4.023
	l7.452,4.984V35.068z M20,24.066L13.921,20L20,15.933L26.079,20L20,24.066z M21.719,35.068v-8.016l7.452-4.984l6.015,4.023
	L21.719,35.068z M36.562,22.877L32.263,20l4.3-2.876V22.877z"/>
</svg>
