<?xml version="1.0" encoding="utf-8"?>
<!-- Generator: Adobe Illustrator 15.0.2, SVG Export Plug-In . SVG Version: 6.00 Build 0)  -->
<!DOCTYPE svg PUBLIC "-//W3C//DTD SVG 1.1//EN" "http://www.w3.org/Graphics/SVG/1.1/DTD/svg11.dtd">
<svg version="1.1" id="Layer_1" xmlns="http://www.w3.org/2000/svg" xmlns:xlink="http://www.w3.org/1999/xlink" x="0px" y="0px"
	 width="40px" height="40px" viewBox="0 0 40 40" enable-background="new 0 0 40 40" xml:space="preserve">
<path fill="#FFFFFF" d="M0,20C0,8.95,8.95-0.01,20-0.01c11.05,0,20,8.96,20,20.01c0,11.05-8.95,20-20,20C8.95,40,0,31.05,0,20z
	 M21.83,19.92c-0.35-0.96-0.86-2-1.39-2.96c-8.78,2.7-17.22,2.44-17.48,2.44c0,0.18,0,0.35,0,0.61c0,4.35,1.65,8.35,4.35,11.39
	c0,0,4.7-8.35,13.92-11.31C21.39,20,21.66,19.92,21.83,19.92z M12.69,4.52C8,6.78,4.43,11.13,3.3,16.43c0.44,0,7.56,0.09,15.74-2.08
	C16.09,9.13,12.96,4.78,12.69,4.52z M9.13,33.13c0.26,0.18,0.35,0.26,0.35,0.26C9.39,33.31,9.22,33.22,9.13,33.13z M9.47,33.39
	c2.96,2.27,6.61,3.65,10.52,3.65c2.35,0,4.61-0.52,6.7-1.39c-0.26-1.48-1.3-6.7-3.65-12.96c-0.08,0-0.08,0.08-0.08,0.08
	C12.87,26.26,9.56,33.31,9.47,33.39z M20,2.87c-1.39,0-2.69,0.17-3.99,0.52c0.25,0.35,3.47,4.61,6.34,9.91
	c6.43-2.44,8.87-6.08,8.96-6.17C28.26,4.52,24.35,2.87,20,2.87z M24.79,18.35c0.17,0.25,0.25,0.61,0.43,0.86
	c5.83-0.69,11.65,0.52,11.82,0.61c0-4.09-1.47-7.82-3.82-10.69c-0.08,0-2.78,4-9.56,6.78C24.09,16.69,24.43,17.48,24.79,18.35z
	 M29.56,34.09c3.84-2.53,6.53-6.7,7.31-11.39c-0.35-0.18-5.13-1.66-10.61-0.79C28.44,28.09,29.39,33.13,29.56,34.09z"/>
</svg>
