<?xml version="1.0" encoding="utf-8"?>
<!-- Generator: Adobe Illustrator 15.0.2, SVG Export Plug-In . SVG Version: 6.00 Build 0)  -->
<!DOCTYPE svg PUBLIC "-//W3C//DTD SVG 1.1//EN" "http://www.w3.org/Graphics/SVG/1.1/DTD/svg11.dtd">
<svg version="1.1" id="Layer_1" xmlns="http://www.w3.org/2000/svg" xmlns:xlink="http://www.w3.org/1999/xlink" x="0px" y="0px"
	 width="40px" height="40px" viewBox="0 -3.043 40 40" enable-background="new 0 -3.043 40 40" xml:space="preserve">
<g>
	<path fill-rule="evenodd" clip-rule="evenodd" fill="#FFFFFF" d="M20-2.549c-11.044,0-20,8.954-20,20
		c0,8.836,5.73,16.333,13.677,18.978c1,0.186,1.367-0.434,1.367-0.962c0-0.477-0.019-2.053-0.027-3.724
		c-5.564,1.21-6.738-2.36-6.738-2.36c-0.91-2.312-2.221-2.926-2.221-2.926c-1.814-1.241,0.137-1.216,0.137-1.216
		c2.008,0.141,3.065,2.061,3.065,2.061c1.784,3.058,4.679,2.174,5.82,1.663c0.18-1.293,0.698-2.175,1.27-2.675
		c-4.442-0.505-9.112-2.221-9.112-9.884c0-2.183,0.781-3.967,2.061-5.368C9.091,10.534,8.407,8.5,9.493,5.745
		c0,0,1.68-0.537,5.501,2.05C16.589,7.352,18.3,7.129,20,7.122c1.699,0.008,3.412,0.23,5.011,0.673
		c3.817-2.587,5.494-2.05,5.494-2.05c1.089,2.755,0.403,4.789,0.196,5.293c1.282,1.401,2.059,3.185,2.059,5.368
		c0,7.682-4.679,9.374-9.133,9.869c0.718,0.62,1.356,1.838,1.356,3.703c0,2.677-0.022,4.83-0.022,5.489
		c0,0.532,0.359,1.156,1.373,0.96C34.276,33.779,40,26.284,40,17.451C40,6.404,31.046-2.549,20-2.549z"/>
	<path fill="#FFFFFF" d="M7.575,26.166c-0.044,0.1-0.201,0.13-0.343,0.062c-0.146-0.065-0.227-0.201-0.18-0.301
		c0.043-0.102,0.2-0.131,0.344-0.062C7.542,25.93,7.625,26.066,7.575,26.166L7.575,26.166z M7.329,25.984"/>
	<path fill="#FFFFFF" d="M8.385,27.07c-0.095,0.088-0.282,0.047-0.409-0.093c-0.131-0.14-0.155-0.326-0.058-0.416
		c0.098-0.088,0.279-0.047,0.41,0.093C8.459,26.795,8.485,26.98,8.385,27.07L8.385,27.07z M8.194,26.865"/>
	<path fill="#FFFFFF" d="M9.174,28.222c-0.123,0.085-0.323,0.006-0.447-0.172c-0.123-0.179-0.123-0.392,0.002-0.478
		c0.124-0.085,0.322-0.008,0.447,0.168C9.299,27.921,9.299,28.135,9.174,28.222L9.174,28.222z M9.174,28.222"/>
	<path fill="#FFFFFF" d="M10.254,29.335c-0.109,0.121-0.343,0.088-0.514-0.077c-0.175-0.161-0.224-0.39-0.114-0.511
		c0.111-0.121,0.346-0.087,0.518,0.076C10.318,28.984,10.371,29.215,10.254,29.335L10.254,29.335z M10.254,29.335"/>
	<path fill="#FFFFFF" d="M11.745,29.98c-0.049,0.157-0.273,0.229-0.5,0.161c-0.226-0.068-0.374-0.252-0.329-0.41
		c0.047-0.157,0.273-0.231,0.501-0.16C11.643,29.64,11.792,29.821,11.745,29.98L11.745,29.98z M11.745,29.98"/>
	<path fill="#FFFFFF" d="M13.381,30.101c0.005,0.165-0.187,0.302-0.424,0.305c-0.239,0.006-0.433-0.128-0.436-0.29
		c0-0.167,0.188-0.302,0.427-0.307C13.187,29.805,13.381,29.937,13.381,30.101L13.381,30.101z M13.381,30.101"/>
	<path fill="#FFFFFF" d="M14.904,29.842c0.028,0.16-0.137,0.326-0.373,0.37c-0.232,0.042-0.447-0.058-0.477-0.217
		c-0.029-0.165,0.139-0.33,0.371-0.373C14.663,29.581,14.874,29.678,14.904,29.842L14.904,29.842z M14.904,29.842"/>
</g>
</svg>
