<?xml version="1.0" encoding="utf-8"?>
<!-- Generator: Adobe Illustrator 15.0.2, SVG Export Plug-In . SVG Version: 6.00 Build 0)  -->
<!DOCTYPE svg PUBLIC "-//W3C//DTD SVG 1.1//EN" "http://www.w3.org/Graphics/SVG/1.1/DTD/svg11.dtd">
<svg version="1.1" id="Layer_1" xmlns="http://www.w3.org/2000/svg" xmlns:xlink="http://www.w3.org/1999/xlink" x="0px" y="0px"
	 width="40px" height="40px" viewBox="0 0 40 40" enable-background="new 0 0 40 40" xml:space="preserve">
<path fill="#FFFFFF" d="M4.44,8.84C1.77,8.84,0,6.89,0,4.57c0-2.4,1.77-4.26,4.53-4.26c2.75,0,4.44,1.86,4.53,4.26
	C9.06,6.89,7.28,8.84,4.44,8.84z M0.26,12.22H8.8v27.47H0.26V12.22z M13.69,12.22h7.38l0.45,3.82h0.17
	c1.07-1.78,3.82-4.44,8.45-4.44c5.69,0,9.87,3.73,9.87,11.82v16.27h-8.53v-15.2c0-3.55-1.24-5.95-4.35-5.95
	c-2.32,0-3.73,1.6-4.36,3.2c-0.28,0.53-0.28,1.34-0.28,2.14v15.82h-8.61V21.02C13.87,17.56,13.78,14.71,13.69,12.22z"/>
</svg>
