<?xml version="1.0" encoding="utf-8"?>
<!-- Generator: Adobe Illustrator 15.0.2, SVG Export Plug-In . SVG Version: 6.00 Build 0)  -->
<!DOCTYPE svg PUBLIC "-//W3C//DTD SVG 1.1//EN" "http://www.w3.org/Graphics/SVG/1.1/DTD/svg11.dtd">
<svg version="1.1" id="Layer_1" xmlns="http://www.w3.org/2000/svg" xmlns:xlink="http://www.w3.org/1999/xlink" x="0px" y="0px"
	 width="40px" height="40px" viewBox="0 0 40 40" enable-background="new 0 0 40 40" xml:space="preserve">
<path fill="#FFFFFF" d="M11.12,40c-1.2-8.39,1.68-14.62,3.04-21.25c-2.24-3.83,0.32-11.58,5.11-9.67c5.91,2.32-5.11,14.3,2.32,15.82
	c7.76,1.6,10.94-13.5,6.08-18.38C20.71-0.5,7.44,6.37,9.04,16.52c0.4,2.47,2.95,3.19,1.04,6.63c-4.48-1.04-5.75-4.55-5.59-9.18
	c0.23-7.67,6.87-13.02,13.5-13.82c8.38-0.96,16.29,3.12,17.33,11.03c1.28,8.87-3.75,18.53-12.7,17.81
	c-2.48-0.16-3.51-1.36-5.35-2.56C16.15,31.93,14.87,37.2,11.12,40z"/>
</svg>
