<?xml version="1.0" encoding="utf-8"?>
<!-- Generator: Adobe Illustrator 15.0.2, SVG Export Plug-In . SVG Version: 6.00 Build 0)  -->
<!DOCTYPE svg PUBLIC "-//W3C//DTD SVG 1.1//EN" "http://www.w3.org/Graphics/SVG/1.1/DTD/svg11.dtd">
<svg version="1.1" id="Layer_1" xmlns="http://www.w3.org/2000/svg" xmlns:xlink="http://www.w3.org/1999/xlink" x="0px" y="0px"
	 width="40px" height="40px" viewBox="0 0 40 40" enable-background="new 0 0 40 40" xml:space="preserve">
<path fill="#FFFFFF" d="M35.91,11.87c0,0.35,0,0.69,0,1.04c0,10.87-8.25,23.3-23.3,23.3c-4.69,0-8.96-1.3-12.61-3.65
	c0.61,0.09,1.3,0.09,2,0.09c3.83,0,7.39-1.3,10.18-3.48c-3.57-0.08-6.61-2.44-7.66-5.74c0.44,0.17,0.96,0.17,1.49,0.17
	c0.78,0,1.47-0.08,2.17-0.26c-3.74-0.78-6.51-4.09-6.51-8.09v-0.08C2.7,15.79,4,16.13,5.3,16.22c-2.17-1.48-3.65-4-3.65-6.87
	c0-1.48,0.43-2.87,1.13-4.08c4.08,4.96,10.09,8.26,16.96,8.52c-0.17-0.52-0.26-1.22-0.26-1.83c0-4.52,3.65-8.17,8.26-8.17
	c2.35,0,4.43,0.96,5.91,2.52c1.91-0.35,3.65-1.04,5.22-1.92c-0.61,1.92-1.91,3.48-3.57,4.52c1.66-0.26,3.21-0.69,4.7-1.3
	C38.87,9.27,37.48,10.66,35.91,11.87z"/>
</svg>
